<svg width="417" height="417" viewBox="0 0 417 417" fill="none" xmlns="http://www.w3.org/2000/svg">
<path fill-rule="evenodd" clip-rule="evenodd" d="M352.695 68.8807C348.98 65.1664 343.943 63.0793 338.69 63.0785L180.208 63.0785C175.014 63.1688 170.064 65.2953 166.423 69C162.782 72.7046 160.742 77.6911 160.742 82.8854C160.742 88.0796 162.782 93.0661 166.423 96.7708C170.064 100.475 175.014 102.602 180.208 102.692L318.883 102.692V241.368C318.838 243.998 319.316 246.611 320.291 249.054C321.266 251.497 322.718 253.722 324.561 255.598C326.405 257.474 328.604 258.964 331.03 259.981C333.456 260.998 336.06 261.522 338.69 261.522C341.321 261.522 343.925 260.998 346.351 259.981C348.776 258.964 350.975 257.474 352.819 255.598C354.663 253.722 356.114 251.497 357.089 249.054C358.064 246.611 358.543 243.998 358.497 241.368V82.8854C358.496 77.6325 356.409 72.595 352.695 68.8807ZM250.453 161.282C246.739 157.568 241.701 155.481 236.448 155.48L77.9656 155.48C72.7721 155.57 67.8219 157.697 64.181 161.401C60.5402 165.106 58.5001 170.092 58.5001 175.287C58.5001 180.481 60.5402 185.467 64.181 189.172C67.8219 192.877 72.7721 195.003 77.9656 195.094H216.641L216.641 333.769C216.596 336.399 217.074 339.012 218.049 341.455C219.024 343.898 220.476 346.123 222.319 347.999C224.163 349.875 226.362 351.365 228.788 352.382C231.214 353.4 233.818 353.923 236.448 353.923C239.079 353.923 241.683 353.4 244.109 352.382C246.534 351.365 248.733 349.875 250.577 347.999C252.421 346.123 253.873 343.898 254.847 341.455C255.822 339.012 256.301 336.399 256.255 333.769L256.255 175.287C256.254 170.034 254.167 164.996 250.453 161.282Z" fill="#908CAA"/>
<path fill-rule="evenodd" clip-rule="evenodd" d="M216.642 195.697L216.642 333.769C216.596 336.399 217.074 339.012 218.049 341.455C219.024 343.898 220.476 346.123 222.32 347.999C224.163 349.875 226.362 351.365 228.788 352.382C231.214 353.4 233.818 353.923 236.448 353.923C239.079 353.923 241.683 353.4 244.109 352.382C246.535 351.365 248.734 349.875 250.577 347.999C252.421 346.123 253.873 343.898 254.848 341.455C255.822 339.012 256.301 336.399 256.255 333.769L256.255 175.287C256.255 171.025 254.881 166.905 252.379 163.519L216.642 195.697ZM318.884 103.638V241.368C318.838 243.998 319.316 246.611 320.291 249.054C321.266 251.497 322.718 253.722 324.562 255.598C326.405 257.474 328.604 258.964 331.03 259.981C333.456 260.998 336.06 261.522 338.69 261.522C341.321 261.522 343.925 260.998 346.351 259.981C348.777 258.964 350.976 257.474 352.819 255.598C354.663 253.722 356.115 251.497 357.09 249.054C358.064 246.611 358.543 243.998 358.497 241.368V82.8854C358.497 78.7101 357.178 74.6709 354.772 71.3241L318.884 103.638Z" fill="black" fill-opacity="0.22"/>
</svg>
