<svg  viewBox="0 0 208 121" fill="none" xmlns="http://www.w3.org/2000/svg">
<rect width="208" height="121" fill="none"/>
<g clip-path="url(#clip0_1471_4660)">
<path d="M104 20.8L79.6001 29.7L66.6001 52.2001L71.1001 77.8001L91.0001 94.5H117L137 77.8001L141.5 52.2001L128.5 29.7L104 20.8Z" stroke="white" stroke-miterlimit="10"/>
<path d="M104 108.6V58.8999" stroke="white" stroke-miterlimit="10"/>
<path d="M136 96.8999L104 58.8999" stroke="white" stroke-miterlimit="10"/>
<path d="M153 67.4999L104 58.8999" stroke="white" stroke-miterlimit="10"/>
<path d="M147.1 34L104 58.9" stroke="white" stroke-miterlimit="10"/>
<path d="M121 12.2L104 58.9" stroke="white" stroke-miterlimit="10"/>
<path d="M87 12.2L104 58.9" stroke="white" stroke-miterlimit="10"/>
<path d="M61 34L104 58.9" stroke="white" stroke-miterlimit="10"/>
<path d="M55.1001 67.4999L104 58.8999" stroke="white" stroke-miterlimit="10"/>
<path d="M72.1001 96.8999L104 58.8999" stroke="white" stroke-miterlimit="10"/>
</g>
<defs>
<clipPath id="clip0_1471_4660">
<rect width="98" height="97" fill="white" transform="translate(55 12)"/>
</clipPath>
</defs>
</svg>
